# xmcd
#
# Track frame offsets:
#	150
#	18190
#	40441
#	57882
#	76204
#	97189
#	116889
#	135273
#	152495
#	173068
#	189207
#	209265
#
# Disc length: 3016 seconds
#
# Revision: 1
# Processed by: cddbd v1.5.2PL0 Copyright (c) Steve Scherf et al.
# Submitted via: audiograbber 1.83.01
#
DISCID=930bc60c
DTITLE=Tenry Johns - So What
DYEAR=1900
DGENRE=Blues
TTITLE0=Party Time
TTITLE1=So What
TTITLE2=I'm A Good Man
TTITLE3=Where's The Love
TTITLE4=Oh Baby
TTITLE5=We Can Make It
TTITLE6=You Don't Need No One You Can't Trust
TTITLE7=T.J.'s Groove
TTITLE8=I Wanna Know Your Name
TTITLE9=Heart and Soul
TTITLE10=We Won
TTITLE11=Keep On Movin' On
EXTD=
EXTT0=
EXTT1=
EXTT2=
EXTT3=
EXTT4=
EXTT5=
EXTT6=
EXTT7=
EXTT8=
EXTT9=
EXTT10=
EXTT11=
PLAYORDER=
